# Blender v2.82 (sub 7) OBJ File: ''
# www.blender.org
mtllib chainPart.mtl
o Cube_Cube.001
v -0.654369 -0.100000 0.477333
v -0.752219 -0.100000 0.415241
v -0.752219 0.100000 0.415241
v -0.654369 0.100000 0.477333
v -0.752219 -0.100000 -0.415241
v -0.654369 -0.100000 -0.477333
v -0.654369 0.100000 -0.477333
v -0.752219 0.100000 -0.415241
v 0.752219 -0.100000 0.415241
v 0.654369 -0.100000 0.477333
v 0.654369 0.100000 0.477333
v 0.752219 0.100000 0.415241
v 0.654369 -0.100000 -0.477333
v 0.752219 -0.100000 -0.415241
v 0.752219 0.100000 -0.415241
v 0.654369 0.100000 -0.477333
v -0.545307 0.100000 -0.343680
v -0.545307 -0.100000 -0.343680
v -0.626849 0.100000 -0.298973
v -0.626849 -0.100000 -0.298973
v -0.626849 -0.100000 -0.126206
v -0.626849 0.100000 0.298973
v -0.626849 -0.100000 0.298973
v 0.545307 0.100000 -0.343680
v 0.545307 -0.100000 -0.343680
v 0.545307 0.100000 0.343680
v 0.545307 -0.100000 0.343680
v 0.626849 0.100000 -0.298973
v 0.626849 -0.100000 -0.298973
v -0.545307 0.100000 0.343680
v -0.545307 -0.100000 0.343680
v 0.626849 0.100000 0.298973
v 0.626849 -0.100000 0.298973
vt 0.375000 0.766260
vt 0.625000 0.766260
vt 0.625000 0.983740
vt 0.375000 0.983740
vt 0.375000 0.516260
vt 0.625000 0.516260
vt 0.625000 0.733740
vt 0.375000 0.733740
vt 0.645833 0.546707
vt 0.645833 0.703293
vt 0.659384 0.715000
vt 0.840616 0.715000
vt 0.854167 0.703293
vt 0.875000 0.733740
vt 0.858740 0.750000
vt 0.641260 0.750000
vt 0.375000 0.016260
vt 0.625000 0.016260
vt 0.625000 0.233740
vt 0.375000 0.233740
vt 0.375000 0.266260
vt 0.625000 0.266260
vt 0.625000 0.483740
vt 0.375000 0.483740
vt 0.625000 1.000000
vt 0.375000 1.000000
vt 0.125000 0.516260
vt 0.145833 0.591950
vt 0.145833 0.703293
vt 0.159384 0.715000
vt 0.340616 0.715000
vt 0.354167 0.703293
vt 0.358740 0.750000
vt 0.141260 0.750000
vt 0.125000 0.733740
vt 0.854167 0.546707
vt 0.840616 0.535000
vt 0.659384 0.535000
vt 0.641260 0.500000
vt 0.858740 0.500000
vt 0.875000 0.516260
vt 0.533847 0.483740
vt 0.447234 0.483740
vt 0.447234 0.516260
vt 0.533847 0.516260
vt 0.447234 0.733740
vt 0.533847 0.733740
vt 0.533847 0.233740
vt 0.447234 0.233740
vt 0.447234 0.266260
vt 0.533847 0.266260
vt 0.447234 1.000000
vt 0.533847 1.000000
vt 0.533847 0.983740
vt 0.447234 0.983740
vt 0.533847 0.016260
vt 0.447234 0.016260
vt 0.447234 0.170902
vt 0.447234 0.766260
vt 0.533847 0.766260
vt 0.354167 0.546708
vt 0.340616 0.535000
vt 0.159384 0.535000
vt 0.145833 0.546707
vt 0.141260 0.500000
vt 0.358740 0.500000
vn 0.0000 0.0000 1.0000
vn 1.0000 0.0000 0.0000
vn -0.0000 1.0000 -0.0000
vn -1.0000 0.0000 0.0000
vn 0.0000 0.0000 -1.0000
vn -0.5358 0.0000 0.8443
vn -0.5358 0.0000 -0.8443
vn 0.5358 0.0000 -0.8443
vn 0.5358 0.0000 0.8443
vn 0.0000 -1.0000 0.0000
vn -0.4808 0.0000 0.8769
vn 0.4808 0.0000 0.8769
vn 0.4808 0.0000 -0.8769
vn -0.4808 0.0000 -0.8769
usemtl None
s off
f 10/1/1 11/2/1 4/3/1 1/4/1
f 14/5/2 15/6/2 12/7/2 9/8/2
f 15/6/3 28/9/3 32/10/3 26/11/3 30/12/3 22/13/3 3/14/3 4/15/3 11/16/3 12/7/3
f 2/17/4 3/18/4 8/19/4 5/20/4
f 6/21/5 7/22/5 16/23/5 13/24/5
f 1/4/6 4/3/6 3/25/6 2/26/6
f 7/22/7 6/21/7 5/20/7 8/19/7
f 15/6/8 14/5/8 13/24/8 16/23/8
f 11/2/9 10/1/9 9/8/9 12/7/9
f 5/27/10 21/28/10 23/29/10 31/30/10 27/31/10 33/32/10 9/8/10 10/33/10 1/34/10 2/35/10
f 3/14/3 22/13/3 19/36/3 17/37/3 24/38/3 28/9/3 15/6/3 16/39/3 7/40/3 8/41/3
f 24/42/11 25/43/11 29/44/11 28/45/11
f 33/46/4 32/47/4 28/45/4 29/44/4
f 19/48/12 20/49/12 18/50/12 17/51/12
f 23/52/13 22/53/13 30/54/13 31/55/13
f 20/49/2 19/48/2 22/56/2 23/57/2 21/58/2
f 32/47/14 33/46/14 27/59/14 26/60/14
f 31/55/5 30/54/5 26/60/5 27/59/5
f 25/43/1 24/42/1 17/51/1 18/50/1
f 9/8/10 33/32/10 29/61/10 25/62/10 18/63/10 20/64/10 21/28/10 5/27/10 6/65/10 13/66/10 14/5/10
